<svg width="2538" height="757" viewBox="0 0 2538 757" fill="none" xmlns="http://www.w3.org/2000/svg">
<path d="M430.748 757H340.896L309.904 585.709H120.243L89.2529 757H0L136.959 0H293.79L430.748 757ZM1489.8 757H1399.94L1368.95 585.709H1179.29L1148.3 757H1059.05L1196.01 0H1352.84L1489.8 757ZM1540.85 0C1578.59 1.01995 1674.31 3.05957 1755.3 3.05957C1856.54 3.05984 1916.86 83.8394 1916.86 205.62C1916.86 334.132 1868.93 373.298 1839.59 388.598V407.568C1861.49 399.613 1898.27 427.151 1898.27 482.228V757H1813.98C1814.11 692.948 1814.31 557.499 1813.98 528.125C1813.56 491.407 1804.89 465.093 1778.85 465.093H1625.97V757H1540.85V0ZM2318.5 2.44824L2436.68 669.489H2451.14V2.44824H2537.5V756.389H2368.5L2249.5 86.8994H2238.34V756.389H2151.57V2.44824H2318.5ZM2070.58 756.388H1979.67L1980.08 1.83594H2070.58V756.388ZM736.334 671.325H750.796L851.618 0.611328H1012.77V754.552H925.995V93.0186H915.252L817.322 754.552H671.46L571.878 93.0186H559.068V754.552H475.601V0.611328H637.164L736.334 671.325ZM143.796 463.257H287.179L223.958 86.2871H207.843L143.796 463.257ZM1202.84 463.257H1346.23L1283.01 86.2871H1266.89L1202.84 463.257ZM1626.38 348.819H1749.52C1804.06 348.819 1828.44 302.31 1828.44 228.875C1828.44 182.366 1815.22 122.393 1743.32 122.393H1626.38V348.819Z" fill="#00E0B4"/>
</svg>
